<mxfile host="app.diagrams.net" modified="2021-09-15T00:03:50.278Z" agent="5.0 (Windows NT 10.0; Win64; x64) AppleWebKit/537.36 (KHTML, like Gecko) Chrome/93.0.4577.82 Safari/537.36" etag="-LADIDdHW3Krivfrnaqt" version="15.2.7" type="github">
  <diagram id="C5RBs43oDa-KdzZeNtuy" name="Page-1">
    <mxGraphModel dx="868" dy="460" grid="1" gridSize="10" guides="1" tooltips="1" connect="1" arrows="1" fold="1" page="1" pageScale="1" pageWidth="1169" pageHeight="1654" math="0" shadow="0">
      <root>
        <mxCell id="WIyWlLk6GJQsqaUBKTNV-0" />
        <mxCell id="WIyWlLk6GJQsqaUBKTNV-1" parent="WIyWlLk6GJQsqaUBKTNV-0" />
        <mxCell id="69hH43GIPCr95EsowUZN-2" style="edgeStyle=orthogonalEdgeStyle;rounded=0;orthogonalLoop=1;jettySize=auto;html=1;entryX=0.5;entryY=0;entryDx=0;entryDy=0;" edge="1" parent="WIyWlLk6GJQsqaUBKTNV-1" source="69hH43GIPCr95EsowUZN-0" target="69hH43GIPCr95EsowUZN-1">
          <mxGeometry relative="1" as="geometry" />
        </mxCell>
        <mxCell id="69hH43GIPCr95EsowUZN-0" value="Begin" style="ellipse;whiteSpace=wrap;html=1;" vertex="1" parent="WIyWlLk6GJQsqaUBKTNV-1">
          <mxGeometry x="350" width="120" height="80" as="geometry" />
        </mxCell>
        <mxCell id="69hH43GIPCr95EsowUZN-4" style="edgeStyle=orthogonalEdgeStyle;rounded=0;orthogonalLoop=1;jettySize=auto;html=1;entryX=0.5;entryY=0;entryDx=0;entryDy=0;" edge="1" parent="WIyWlLk6GJQsqaUBKTNV-1" source="69hH43GIPCr95EsowUZN-1" target="69hH43GIPCr95EsowUZN-3">
          <mxGeometry relative="1" as="geometry" />
        </mxCell>
        <mxCell id="69hH43GIPCr95EsowUZN-1" value="Nhập tham số a, b, c" style="shape=parallelogram;perimeter=parallelogramPerimeter;whiteSpace=wrap;html=1;fixedSize=1;" vertex="1" parent="WIyWlLk6GJQsqaUBKTNV-1">
          <mxGeometry x="330" y="130" width="160" height="60" as="geometry" />
        </mxCell>
        <mxCell id="69hH43GIPCr95EsowUZN-6" style="edgeStyle=orthogonalEdgeStyle;rounded=0;orthogonalLoop=1;jettySize=auto;html=1;entryX=1;entryY=0.5;entryDx=0;entryDy=0;" edge="1" parent="WIyWlLk6GJQsqaUBKTNV-1" source="69hH43GIPCr95EsowUZN-3" target="69hH43GIPCr95EsowUZN-5">
          <mxGeometry relative="1" as="geometry" />
        </mxCell>
        <mxCell id="69hH43GIPCr95EsowUZN-9" style="edgeStyle=orthogonalEdgeStyle;rounded=0;orthogonalLoop=1;jettySize=auto;html=1;entryX=0;entryY=0.5;entryDx=0;entryDy=0;" edge="1" parent="WIyWlLk6GJQsqaUBKTNV-1" source="69hH43GIPCr95EsowUZN-3" target="69hH43GIPCr95EsowUZN-7">
          <mxGeometry relative="1" as="geometry" />
        </mxCell>
        <mxCell id="69hH43GIPCr95EsowUZN-3" value="a==0" style="rhombus;whiteSpace=wrap;html=1;" vertex="1" parent="WIyWlLk6GJQsqaUBKTNV-1">
          <mxGeometry x="370" y="240" width="80" height="80" as="geometry" />
        </mxCell>
        <mxCell id="69hH43GIPCr95EsowUZN-16" value="" style="edgeStyle=orthogonalEdgeStyle;rounded=0;orthogonalLoop=1;jettySize=auto;html=1;" edge="1" parent="WIyWlLk6GJQsqaUBKTNV-1" source="69hH43GIPCr95EsowUZN-5" target="69hH43GIPCr95EsowUZN-15">
          <mxGeometry relative="1" as="geometry" />
        </mxCell>
        <mxCell id="69hH43GIPCr95EsowUZN-5" value="delta = (b*b) - (4*a*c)&lt;br&gt;d = sqrt(delta)" style="shape=parallelogram;perimeter=parallelogramPerimeter;whiteSpace=wrap;html=1;fixedSize=1;" vertex="1" parent="WIyWlLk6GJQsqaUBKTNV-1">
          <mxGeometry x="75" y="250" width="150" height="60" as="geometry" />
        </mxCell>
        <mxCell id="69hH43GIPCr95EsowUZN-11" value="" style="edgeStyle=orthogonalEdgeStyle;rounded=0;orthogonalLoop=1;jettySize=auto;html=1;" edge="1" parent="WIyWlLk6GJQsqaUBKTNV-1" source="69hH43GIPCr95EsowUZN-7">
          <mxGeometry relative="1" as="geometry">
            <mxPoint x="670" y="389" as="targetPoint" />
          </mxGeometry>
        </mxCell>
        <mxCell id="69hH43GIPCr95EsowUZN-13" value="" style="edgeStyle=orthogonalEdgeStyle;rounded=0;orthogonalLoop=1;jettySize=auto;html=1;entryX=0;entryY=0.5;entryDx=0;entryDy=0;" edge="1" parent="WIyWlLk6GJQsqaUBKTNV-1" source="69hH43GIPCr95EsowUZN-7" target="69hH43GIPCr95EsowUZN-14">
          <mxGeometry relative="1" as="geometry">
            <mxPoint x="780" y="280" as="targetPoint" />
            <Array as="points" />
          </mxGeometry>
        </mxCell>
        <mxCell id="69hH43GIPCr95EsowUZN-7" value="b==0" style="rhombus;whiteSpace=wrap;html=1;" vertex="1" parent="WIyWlLk6GJQsqaUBKTNV-1">
          <mxGeometry x="630" y="240" width="80" height="80" as="geometry" />
        </mxCell>
        <mxCell id="69hH43GIPCr95EsowUZN-28" style="edgeStyle=orthogonalEdgeStyle;rounded=0;orthogonalLoop=1;jettySize=auto;html=1;entryX=1;entryY=0.5;entryDx=0;entryDy=0;" edge="1" parent="WIyWlLk6GJQsqaUBKTNV-1" source="69hH43GIPCr95EsowUZN-10" target="69hH43GIPCr95EsowUZN-25">
          <mxGeometry relative="1" as="geometry">
            <Array as="points">
              <mxPoint x="670" y="730" />
            </Array>
          </mxGeometry>
        </mxCell>
        <mxCell id="69hH43GIPCr95EsowUZN-10" value="Print&lt;br&gt;&quot;Phương trình vô nghiệm&quot;" style="shape=parallelogram;perimeter=parallelogramPerimeter;whiteSpace=wrap;html=1;fixedSize=1;" vertex="1" parent="WIyWlLk6GJQsqaUBKTNV-1">
          <mxGeometry x="585" y="390" width="180" height="60" as="geometry" />
        </mxCell>
        <mxCell id="69hH43GIPCr95EsowUZN-29" style="edgeStyle=orthogonalEdgeStyle;rounded=0;orthogonalLoop=1;jettySize=auto;html=1;" edge="1" parent="WIyWlLk6GJQsqaUBKTNV-1" source="69hH43GIPCr95EsowUZN-14">
          <mxGeometry relative="1" as="geometry">
            <mxPoint x="670" y="730" as="targetPoint" />
            <Array as="points">
              <mxPoint x="880" y="730" />
            </Array>
          </mxGeometry>
        </mxCell>
        <mxCell id="69hH43GIPCr95EsowUZN-14" value="Print&lt;br&gt;&quot;Phương trình có 1 nghiệm&quot;&lt;br&gt;x = -c / a" style="shape=parallelogram;perimeter=parallelogramPerimeter;whiteSpace=wrap;html=1;fixedSize=1;" vertex="1" parent="WIyWlLk6GJQsqaUBKTNV-1">
          <mxGeometry x="790" y="250" width="180" height="60" as="geometry" />
        </mxCell>
        <mxCell id="69hH43GIPCr95EsowUZN-18" value="" style="edgeStyle=orthogonalEdgeStyle;rounded=0;orthogonalLoop=1;jettySize=auto;html=1;" edge="1" parent="WIyWlLk6GJQsqaUBKTNV-1" source="69hH43GIPCr95EsowUZN-15" target="69hH43GIPCr95EsowUZN-17">
          <mxGeometry relative="1" as="geometry" />
        </mxCell>
        <mxCell id="69hH43GIPCr95EsowUZN-20" value="" style="edgeStyle=orthogonalEdgeStyle;rounded=0;orthogonalLoop=1;jettySize=auto;html=1;" edge="1" parent="WIyWlLk6GJQsqaUBKTNV-1" source="69hH43GIPCr95EsowUZN-15" target="69hH43GIPCr95EsowUZN-19">
          <mxGeometry relative="1" as="geometry" />
        </mxCell>
        <mxCell id="69hH43GIPCr95EsowUZN-15" value="delta &amp;gt; 0" style="rhombus;whiteSpace=wrap;html=1;" vertex="1" parent="WIyWlLk6GJQsqaUBKTNV-1">
          <mxGeometry x="110" y="380" width="80" height="80" as="geometry" />
        </mxCell>
        <mxCell id="69hH43GIPCr95EsowUZN-27" style="edgeStyle=orthogonalEdgeStyle;rounded=0;orthogonalLoop=1;jettySize=auto;html=1;entryX=0;entryY=0.5;entryDx=0;entryDy=0;" edge="1" parent="WIyWlLk6GJQsqaUBKTNV-1" source="69hH43GIPCr95EsowUZN-17" target="69hH43GIPCr95EsowUZN-25">
          <mxGeometry relative="1" as="geometry">
            <Array as="points">
              <mxPoint x="151" y="730" />
            </Array>
          </mxGeometry>
        </mxCell>
        <mxCell id="69hH43GIPCr95EsowUZN-17" value="Print&lt;br&gt;&quot;Phương trình có 2 nghiệm phâm biệt&quot;&lt;br&gt;x1 = (-b + d) / (2 * a)&lt;br&gt;x2 = (-b - d) / (2 * a)&amp;nbsp;" style="shape=parallelogram;perimeter=parallelogramPerimeter;whiteSpace=wrap;html=1;fixedSize=1;" vertex="1" parent="WIyWlLk6GJQsqaUBKTNV-1">
          <mxGeometry x="29.999999999999993" y="540" width="241.25" height="70" as="geometry" />
        </mxCell>
        <mxCell id="69hH43GIPCr95EsowUZN-23" value="" style="edgeStyle=orthogonalEdgeStyle;rounded=0;orthogonalLoop=1;jettySize=auto;html=1;" edge="1" parent="WIyWlLk6GJQsqaUBKTNV-1" source="69hH43GIPCr95EsowUZN-19" target="69hH43GIPCr95EsowUZN-22">
          <mxGeometry relative="1" as="geometry" />
        </mxCell>
        <mxCell id="69hH43GIPCr95EsowUZN-24" style="edgeStyle=orthogonalEdgeStyle;rounded=0;orthogonalLoop=1;jettySize=auto;html=1;entryX=0;entryY=0.5;entryDx=0;entryDy=0;" edge="1" parent="WIyWlLk6GJQsqaUBKTNV-1" source="69hH43GIPCr95EsowUZN-19" target="69hH43GIPCr95EsowUZN-10">
          <mxGeometry relative="1" as="geometry" />
        </mxCell>
        <mxCell id="69hH43GIPCr95EsowUZN-19" value="delta = 0" style="rhombus;whiteSpace=wrap;html=1;" vertex="1" parent="WIyWlLk6GJQsqaUBKTNV-1">
          <mxGeometry x="370" y="380" width="80" height="80" as="geometry" />
        </mxCell>
        <mxCell id="69hH43GIPCr95EsowUZN-26" style="edgeStyle=orthogonalEdgeStyle;rounded=0;orthogonalLoop=1;jettySize=auto;html=1;entryX=0.5;entryY=0;entryDx=0;entryDy=0;" edge="1" parent="WIyWlLk6GJQsqaUBKTNV-1" source="69hH43GIPCr95EsowUZN-22" target="69hH43GIPCr95EsowUZN-25">
          <mxGeometry relative="1" as="geometry" />
        </mxCell>
        <mxCell id="69hH43GIPCr95EsowUZN-22" value="Print&lt;br&gt;&quot;Phương trình có nghiệm kép&quot;&lt;br&gt;x1 = x2 =&amp;nbsp;(-b) / (2 * a)" style="shape=parallelogram;perimeter=parallelogramPerimeter;whiteSpace=wrap;html=1;fixedSize=1;" vertex="1" parent="WIyWlLk6GJQsqaUBKTNV-1">
          <mxGeometry x="307.5" y="540" width="205" height="70" as="geometry" />
        </mxCell>
        <mxCell id="69hH43GIPCr95EsowUZN-25" value="End" style="ellipse;whiteSpace=wrap;html=1;" vertex="1" parent="WIyWlLk6GJQsqaUBKTNV-1">
          <mxGeometry x="350" y="690" width="120" height="80" as="geometry" />
        </mxCell>
        <mxCell id="69hH43GIPCr95EsowUZN-30" value="False" style="text;html=1;strokeColor=none;fillColor=none;align=center;verticalAlign=middle;whiteSpace=wrap;rounded=0;" vertex="1" parent="WIyWlLk6GJQsqaUBKTNV-1">
          <mxGeometry x="240" y="260" width="40" height="20" as="geometry" />
        </mxCell>
        <mxCell id="69hH43GIPCr95EsowUZN-31" value="False" style="text;html=1;strokeColor=none;fillColor=none;align=center;verticalAlign=middle;whiteSpace=wrap;rounded=0;" vertex="1" parent="WIyWlLk6GJQsqaUBKTNV-1">
          <mxGeometry x="310" y="400" width="40" height="20" as="geometry" />
        </mxCell>
        <mxCell id="69hH43GIPCr95EsowUZN-32" value="False" style="text;html=1;strokeColor=none;fillColor=none;align=center;verticalAlign=middle;whiteSpace=wrap;rounded=0;" vertex="1" parent="WIyWlLk6GJQsqaUBKTNV-1">
          <mxGeometry x="540" y="400" width="40" height="20" as="geometry" />
        </mxCell>
        <mxCell id="69hH43GIPCr95EsowUZN-33" value="False" style="text;html=1;strokeColor=none;fillColor=none;align=center;verticalAlign=middle;whiteSpace=wrap;rounded=0;" vertex="1" parent="WIyWlLk6GJQsqaUBKTNV-1">
          <mxGeometry x="750" y="260" width="40" height="20" as="geometry" />
        </mxCell>
        <mxCell id="69hH43GIPCr95EsowUZN-34" value="True" style="text;html=1;strokeColor=none;fillColor=none;align=center;verticalAlign=middle;whiteSpace=wrap;rounded=0;" vertex="1" parent="WIyWlLk6GJQsqaUBKTNV-1">
          <mxGeometry x="580" y="260" width="40" height="20" as="geometry" />
        </mxCell>
        <mxCell id="69hH43GIPCr95EsowUZN-35" value="True" style="text;html=1;strokeColor=none;fillColor=none;align=center;verticalAlign=middle;whiteSpace=wrap;rounded=0;" vertex="1" parent="WIyWlLk6GJQsqaUBKTNV-1">
          <mxGeometry x="100" y="360" width="40" height="20" as="geometry" />
        </mxCell>
        <mxCell id="69hH43GIPCr95EsowUZN-36" value="True" style="text;html=1;strokeColor=none;fillColor=none;align=center;verticalAlign=middle;whiteSpace=wrap;rounded=0;" vertex="1" parent="WIyWlLk6GJQsqaUBKTNV-1">
          <mxGeometry x="100" y="510" width="40" height="20" as="geometry" />
        </mxCell>
        <mxCell id="69hH43GIPCr95EsowUZN-37" value="True" style="text;html=1;strokeColor=none;fillColor=none;align=center;verticalAlign=middle;whiteSpace=wrap;rounded=0;" vertex="1" parent="WIyWlLk6GJQsqaUBKTNV-1">
          <mxGeometry x="360" y="510" width="40" height="20" as="geometry" />
        </mxCell>
      </root>
    </mxGraphModel>
  </diagram>
</mxfile>
